<?xml version="1.0" encoding="UTF-8"?> <svg xmlns="http://www.w3.org/2000/svg" width="174" height="173" viewBox="0 0 174 173" fill="none"><path d="M77.9853 15.374C69.9435 13.8197 61.8003 12.7723 53.6234 12.2316V5.71035C53.6234 2.56797 51.0554 0 47.913 0H34.1609C31.0185 0 28.4505 2.56797 28.4505 5.71035V12.2316C20.2736 12.7723 12.0966 13.8197 4.08862 15.374C1.72339 15.8133 0.0339355 17.9082 0.0339355 20.3072V39.1953V157.795C0.0339355 159.214 1.18276 160.363 2.6019 160.363H5.16987V167.594C5.16987 170.263 7.33237 172.426 10.0017 172.426H72.0722C74.7415 172.426 76.904 170.263 76.904 167.594V160.397H79.472C80.8912 160.397 82.04 159.248 82.04 157.829V136.136C82.04 134.717 81.4191 124.5 80 124.5C78.5809 124.5 76.904 134.717 76.904 136.136V155.261H5.13608V41.7633H27C28.4191 41.7633 14.8335 40.6145 14.8335 39.1953C14.8335 37.7762 28.4191 36.6273 27 36.6273H5.13608V20.3748C16.6919 18.1447 28.5519 16.9959 40.3105 16.9283C52.5759 16.8945 64.8751 18.0434 76.9378 20.3748V36.6273H24.3621C22.9429 36.6273 11.5 37.0809 11.5 38.5C11.5 39.9191 22.9429 41.7633 24.3621 41.7633H31.5591C30.4103 43.5203 29.7345 45.649 29.7345 47.9129C29.7345 54.1301 34.8029 59.1984 41.0201 59.1984C47.2372 59.1984 52.3056 54.1301 52.3056 47.9129C52.3056 45.649 51.6298 43.5203 50.481 41.7633H76.904V138.5C76.904 139.919 78.0529 126.81 79.472 126.81C80.8912 126.81 82.04 139.919 82.04 138.5V20.3072C82.04 17.9082 80.3505 15.8133 77.9853 15.374ZM71.7681 160.397V167.29H10.272V160.397H71.7681ZM33.5527 5.71035C33.5527 5.40625 33.823 5.13594 34.1271 5.13594H47.8792C48.1833 5.13594 48.4537 5.40625 48.4537 5.71035V11.8262H33.5527V5.71035ZM47.2035 47.9467C47.2035 51.3594 44.4328 54.0963 41.0539 54.0963C37.6412 54.0963 34.9042 51.3256 34.9042 47.9467C34.9042 44.5678 37.6749 41.7971 41.0539 41.7971C44.4328 41.7633 47.2035 44.534 47.2035 47.9467Z" fill="#0C282F"></path><path d="M69.8083 85.9257C67.9836 83.3239 65.9225 81.3642 63.5911 80.0802C63.1518 79.8437 62.6112 79.9788 62.3747 80.4181C62.1381 80.8573 62.2733 81.398 62.7125 81.6345C64.5709 82.6819 66.328 84.27 67.8485 86.2974C66.5983 87.311 63.4897 89.4398 59.7391 89.4398C59.4012 89.4398 59.0971 89.6425 58.9282 89.9466C58.793 90.2507 58.8268 90.6224 59.0633 90.8927C59.1309 90.9603 64.1317 97.1099 61.7665 104.814C58.6241 105.794 55.3465 105.659 52.1028 104.408C49.501 103.428 47.8791 102.111 47.8791 102.077C47.6088 101.84 47.2372 101.807 46.9331 101.942C46.629 102.077 46.4262 102.415 46.4262 102.753C46.4262 106.469 44.2637 109.578 43.2838 110.828C39.736 108.159 37.6411 104.983 37.1342 101.401C36.7288 98.5628 37.4721 96.5017 37.5059 96.4679C37.6411 96.0962 37.5397 95.6907 37.2356 95.4542C36.9315 95.2177 36.526 95.1839 36.1881 95.4204C33.1471 97.4815 30.9508 96.9747 30.1399 96.6368C29.8358 92.7173 30.6467 89.6425 32.5727 87.48C35.0393 84.7093 38.6885 84.1687 39.8374 84.0673L40.851 85.081C39.0602 85.7905 36.053 87.48 34.4311 90.9603C34.2284 91.3995 34.4311 91.9402 34.8704 92.1429C35.0055 92.2105 35.1069 92.2105 35.242 92.2105C35.5799 92.2105 35.884 92.0077 36.053 91.7036C37.6749 88.2234 41.02 86.8718 42.2364 86.4663L44.1961 88.4261C43.1487 89.879 41.0538 93.562 42.1012 98.7993C42.1688 99.2048 42.5405 99.5089 42.9797 99.5089C43.0473 99.5089 43.0811 99.5089 43.1487 99.4751C43.6217 99.3737 43.9258 98.9007 43.8583 98.4276C42.9797 94.1026 44.5678 91.0278 45.4801 89.6763L52.3731 96.5692C52.542 96.7382 52.7786 96.8396 53.0151 96.8396C53.2516 96.8396 53.4543 96.7382 53.6571 96.5692C53.995 96.2314 53.995 95.6569 53.6571 95.3191L46.7641 88.4261C48.1157 87.5138 51.1905 85.9257 55.4817 86.8042C55.9547 86.9056 56.4278 86.6015 56.5291 86.0946C56.6305 85.6216 56.3264 85.1486 55.8196 85.0472C50.5823 83.9997 46.8993 86.0946 45.4463 87.1421L43.4866 85.1823C43.892 83.9659 45.2774 80.587 48.7239 78.9989C49.1631 78.7962 49.3659 78.2556 49.1631 77.8163C48.9604 77.3771 48.4198 77.1743 47.9805 77.3771C44.5002 78.9989 42.8108 82.0062 42.1012 83.797L41.0875 82.7833C41.1889 81.6345 41.6958 78.0191 44.4665 75.5187C46.629 73.5927 49.7375 72.748 53.6571 73.0521C53.7584 73.3224 53.8936 73.7616 53.9274 74.3023C54.0288 75.3497 53.826 77.0054 52.4069 79.1003C52.2041 79.4044 52.2041 79.8437 52.4407 80.1478C52.6772 80.4519 53.0827 80.5532 53.4543 80.4181C53.4881 80.4181 56.1237 79.4382 59.5364 80.2829C60.0094 80.3843 65 83 64.2999 80.4965C64 80 60.4487 78.6948 59.9756 78.5597C57.9483 78.0528 56.1575 78.1204 54.9073 78.2894C56.6643 74.4036 55.0424 71.8694 54.9748 71.7343C54.8397 71.4978 54.6032 71.3626 54.3329 71.3288C49.67 70.8558 45.9532 71.8019 43.3176 74.1671C41.8985 75.4173 40.9862 76.904 40.4118 78.2894C39.6008 78.4583 38.7899 78.6948 38.0803 79.0665C36.9653 72.4439 32.5727 71.1261 32.37 71.0585C32.0997 70.9909 31.7956 71.0247 31.5928 71.1937L28.2139 73.7616C27.9436 73.9644 27.8422 74.2685 27.876 74.6064C27.9098 74.9105 28.1463 75.1808 28.4504 75.3159C28.6194 75.3835 31.5252 76.4985 33.1809 79.7085C31.6942 78.6948 29.9034 78.1204 28.0112 78.1204C22.9766 78.1204 18.8543 82.2427 18.8543 87.2773C18.8543 88.0544 18.9557 88.8653 19.1584 89.6087C15.1038 90.5548 12.0627 94.1702 12.0627 98.529C12.0627 102.955 15.2389 106.706 19.4625 107.517C19.1584 108.463 18.9895 109.409 18.9895 110.423C18.9895 112.281 19.5301 114.072 20.5776 115.592C20.7465 115.829 21.0168 115.964 21.3209 115.964C21.4899 115.964 21.6588 115.93 21.8278 115.795C22.2333 115.525 22.5931 115.742 22.0643 114.545C21.2196 113.329 20.7803 111.876 20.7803 110.355C20.7803 109.409 20.9493 108.497 21.3209 107.618C23.9903 107.584 26.4569 106.436 28.1801 104.442C29.5317 105.996 31.3563 107.044 33.3499 107.449C33.0458 108.395 32.8768 109.342 32.8768 110.355C32.8768 111.943 33.2823 113.464 34.0594 114.815C32.6741 116.64 30.5116 117.721 28.1801 117.721C28.045 117.721 27.876 117.721 27.7409 117.721C26.6645 117.66 25.5882 117.346 24.6393 116.832C24.4527 116.731 24.2839 116.6 24.1285 116.456C21.7979 114.285 21.3401 114.025 21 113C20.7635 113.405 20.2736 115.506 20.7129 115.742C23.5 119 25.3756 119.14 26.4231 119.343C26.119 120.289 25.95 121.235 25.95 122.249C25.95 127.283 30.0723 131.406 35.1069 131.406C40.1415 131.406 44.2637 127.283 44.2637 122.249C44.2637 121.235 44.0948 120.289 43.7907 119.343C48.0143 118.532 51.1905 114.815 51.1905 110.355C51.1905 109.342 51.0215 108.395 50.7174 107.449C51.6635 107.28 52.5758 106.942 53.3868 106.469C56.5629 107.28 59.8067 107.179 62.8477 106.165C63.118 106.064 63.3208 105.861 63.3883 105.625C64.6385 101.975 64.5372 98.056 63.0842 94.2716C62.5436 92.8862 61.9354 91.7374 61.4286 90.9265C66.1252 90.2845 69.5379 87.0745 69.7069 86.9056C70.011 86.7704 70.0786 86.2636 69.8083 85.9257ZM48.1495 104.375C48.8252 104.78 49.7375 105.287 50.8188 105.76C50.2106 105.929 49.5686 105.996 48.9266 105.996C48.5549 105.996 48.1832 105.963 47.8116 105.929C47.9467 105.422 48.0481 104.915 48.1495 104.375ZM39.3981 82.3441C38.6547 82.4116 37.4383 82.6144 36.0868 83.1212C36.9991 81.8372 38.2831 80.8911 39.7698 80.3843C39.567 81.1614 39.4657 81.871 39.3981 82.3441ZM30.444 74.4036L32.3024 72.9845C33.2823 73.4575 35.8502 75.147 36.4584 80.1478C36.1543 80.3843 35.8502 80.6546 35.5461 80.9587C34.4987 77.3433 32.0321 75.3497 30.444 74.4036ZM20.6452 87.3786C20.6452 83.3239 23.9565 80.0126 28.0112 80.0126C30.4102 80.0126 32.6403 81.1614 34.0256 83.0874C33.7891 83.5267 33.5864 83.9659 33.4512 84.439C32.7079 84.9458 31.9645 85.554 31.3225 86.2974C29.9034 87.8855 28.9911 89.8452 28.5856 92.1767C28.4504 92.3118 28.2815 92.4808 28.1463 92.6497C26.4231 90.6562 23.9227 89.4735 21.2196 89.4735C21.1182 89.4735 21.0506 89.4735 20.9493 89.4735C20.7465 88.7978 20.6452 88.0882 20.6452 87.3786ZM21.2196 105.996C21.0844 105.996 20.9155 105.996 20.7803 105.996C16.8946 105.76 13.8536 102.516 13.8536 98.6304C13.8536 94.5757 17.1649 91.2644 21.2196 91.2644C23.551 91.2644 25.6797 92.3456 27.0989 94.1702C26.3217 95.5218 25.9163 97.0761 25.9163 98.6304C25.9163 100.05 26.2204 101.401 26.8624 102.651C26.9299 102.786 26.9975 102.955 27.0989 103.091C25.6797 104.915 23.551 105.996 21.2196 105.996ZM28.8897 102.651C28.7208 102.381 28.5856 102.144 28.4504 101.874C27.9436 100.86 27.7071 99.7792 27.7071 98.6304C27.7071 97.5829 27.9436 96.5692 28.3491 95.6232C28.3491 96.1638 28.4166 96.7382 28.4504 97.3464C28.4842 97.6167 28.6194 97.8532 28.8559 97.9884C28.9911 98.056 31.5252 99.6778 35.411 97.9208C35.2758 98.9007 35.2083 100.151 35.411 101.57C35.5799 102.786 35.9516 104.273 36.7288 105.827C36.1881 105.963 35.6475 105.996 35.0731 105.996C34.9379 105.996 34.8028 105.996 34.6338 105.996C32.3024 105.861 30.1737 104.611 28.8897 102.651ZM35.0731 129.784C31.0184 129.784 27.7071 126.473 27.7071 122.418C27.7071 121.472 27.876 120.559 28.2477 119.681C30.917 119.647 33.3836 118.498 35.1069 116.505C36.8301 118.498 39.2967 119.647 41.9661 119.681C42.304 120.559 42.5067 121.472 42.5067 122.418C42.4391 126.473 39.1616 129.784 35.0731 129.784ZM41.9999 117.89C39.4995 117.89 37.2018 116.64 35.8165 114.545V114.511C35.0393 113.329 34.6338 111.909 34.6338 110.49C34.6338 109.544 34.8028 108.632 35.1745 107.753C36.0192 107.753 36.8639 107.618 37.6411 107.382C38.7899 109.173 40.4793 110.997 42.9797 112.754C43.1487 112.856 43.3176 112.923 43.4866 112.923C43.7231 112.923 43.9596 112.822 44.1286 112.653C44.2299 112.518 46.0883 110.592 47.2709 107.618C47.8116 107.72 48.3184 107.753 48.859 107.787C49.1969 108.666 49.3997 109.578 49.3997 110.524C49.3997 114.579 46.0883 117.89 41.9999 117.89Z" fill="#0C282F"></path><path d="M168.951 15.374C160.91 13.8197 152.766 12.7723 144.589 12.2316V5.71035C144.589 2.56797 142.021 0 138.879 0H125.127C121.985 0 119.417 2.56797 119.417 5.71035V12.2316C111.24 12.7723 103.063 13.8197 95.0547 15.374C92.6895 15.8133 91 17.9082 91 20.3072V39.1953V157.795C91 159.214 92.1488 160.363 93.568 160.363H96.1359V167.594C96.1359 170.263 98.2984 172.426 100.968 172.426H163.038C165.708 172.426 167.87 170.263 167.87 167.594V160.397H170.438C171.857 160.397 173.006 159.248 173.006 157.829V136.136C173.006 134.717 172.385 124.5 170.966 124.5C169.547 124.5 167.87 134.717 167.87 136.136V155.261H96.1021V41.7633H117.966C119.385 41.7633 105.8 40.6145 105.8 39.1953C105.8 37.7762 119.385 36.6273 117.966 36.6273H96.1021V20.3748C107.658 18.1447 119.518 16.9959 131.277 16.9283C143.542 16.8945 155.841 18.0434 167.904 20.3748V36.6273H115.328C113.909 36.6273 102.466 37.0809 102.466 38.5C102.466 39.9191 113.909 41.7633 115.328 41.7633H122.525C121.376 43.5203 120.701 45.649 120.701 47.9129C120.701 54.1301 125.769 59.1984 131.986 59.1984C138.203 59.1984 143.272 54.1301 143.272 47.9129C143.272 45.649 142.596 43.5203 141.447 41.7633H167.87V138.5C167.87 139.919 169.019 126.81 170.438 126.81C171.857 126.81 173.006 139.919 173.006 138.5V20.3072C173.006 17.9082 171.317 15.8133 168.951 15.374ZM162.734 160.397V167.29H101.238V160.397H162.734ZM124.519 5.71035C124.519 5.40625 124.789 5.13594 125.093 5.13594H138.845C139.149 5.13594 139.42 5.40625 139.42 5.71035V11.8262H124.519V5.71035ZM138.17 47.9467C138.17 51.3594 135.399 54.0963 132.02 54.0963C128.607 54.0963 125.87 51.3256 125.87 47.9467C125.87 44.5678 128.641 41.7971 132.02 41.7971C135.399 41.7633 138.17 44.534 138.17 47.9467Z" fill="#0C282F"></path><path d="M160.774 85.9257C158.95 83.3239 156.889 81.3642 154.557 80.0802C154.118 79.8437 153.577 79.9788 153.341 80.4181C153.104 80.8573 153.239 81.398 153.679 81.6345C155.537 82.6819 157.294 84.27 158.815 86.2974C157.564 87.311 154.456 89.4398 150.705 89.4398C150.367 89.4398 150.063 89.6425 149.894 89.9466C149.759 90.2507 149.793 90.6224 150.029 90.8927C150.097 90.9603 155.098 97.1099 152.733 104.814C149.59 105.794 146.313 105.659 143.069 104.408C140.467 103.428 138.845 102.111 138.845 102.077C138.575 101.84 138.203 101.807 137.899 101.942C137.595 102.077 137.392 102.415 137.392 102.753C137.392 106.469 135.23 109.578 134.25 110.828C130.702 108.159 128.607 104.983 128.1 101.401C127.695 98.5628 128.438 96.5017 128.472 96.4679C128.607 96.0962 128.506 95.6907 128.202 95.4542C127.898 95.2177 127.492 95.1839 127.154 95.4204C124.113 97.4815 121.917 96.9747 121.106 96.6368C120.802 92.7173 121.613 89.6425 123.539 87.48C126.005 84.7093 129.655 84.1687 130.803 84.0673L131.817 85.081C130.026 85.7905 127.019 87.48 125.397 90.9603C125.194 91.3995 125.397 91.9402 125.836 92.1429C125.972 92.2105 126.073 92.2105 126.208 92.2105C126.546 92.2105 126.85 92.0077 127.019 91.7036C128.641 88.2234 131.986 86.8718 133.202 86.4663L135.162 88.4261C134.115 89.879 132.02 93.562 133.067 98.7993C133.135 99.2048 133.507 99.5089 133.946 99.5089C134.013 99.5089 134.047 99.5089 134.115 99.4751C134.588 99.3737 134.892 98.9007 134.824 98.4276C133.946 94.1026 135.534 91.0278 136.446 89.6763L143.339 96.5692C143.508 96.7382 143.745 96.8396 143.981 96.8396C144.218 96.8396 144.42 96.7382 144.623 96.5692C144.961 96.2314 144.961 95.6569 144.623 95.3191L137.73 88.4261C139.082 87.5138 142.157 85.9257 146.448 86.8042C146.921 86.9056 147.394 86.6015 147.495 86.0946C147.597 85.6216 147.292 85.1486 146.786 85.0472C141.548 83.9997 137.865 86.0946 136.412 87.1421L134.453 85.1823C134.858 83.9659 136.243 80.587 139.69 78.9989C140.129 78.7962 140.332 78.2556 140.129 77.8163C139.926 77.3771 139.386 77.1743 138.947 77.3771C135.466 78.9989 133.777 82.0062 133.067 83.797L132.054 82.7833C132.155 81.6345 132.662 78.0191 135.433 75.5187C137.595 73.5927 140.704 72.748 144.623 73.0521C144.725 73.3224 144.86 73.7616 144.893 74.3023C144.995 75.3497 144.792 77.0054 143.373 79.1003C143.17 79.4044 143.17 79.8437 143.407 80.1478C143.643 80.4519 144.049 80.5532 144.42 80.4181C144.454 80.4181 147.09 79.4382 150.502 80.2829C150.975 80.3843 155.966 83 155.266 80.4965C154.966 80 151.415 78.6948 150.942 78.5597C148.914 78.0528 147.124 78.1204 145.873 78.2894C147.63 74.4036 146.008 71.8694 145.941 71.7343C145.806 71.4978 145.569 71.3626 145.299 71.3288C140.636 70.8558 136.919 71.8019 134.284 74.1671C132.865 75.4173 131.952 76.904 131.378 78.2894C130.567 78.4583 129.756 78.6948 129.046 79.0665C127.931 72.4439 123.539 71.1261 123.336 71.0585C123.066 70.9909 122.762 71.0247 122.559 71.1937L119.18 73.7616C118.91 73.9644 118.808 74.2685 118.842 74.6064C118.876 74.9105 119.112 75.1808 119.417 75.3159C119.585 75.3835 122.491 76.4985 124.147 79.7085C122.66 78.6948 120.869 78.1204 118.977 78.1204C113.943 78.1204 109.82 82.2427 109.82 87.2773C109.82 88.0544 109.922 88.8653 110.125 89.6087C106.07 90.5548 103.029 94.1702 103.029 98.529C103.029 102.955 106.205 106.706 110.429 107.517C110.125 108.463 109.956 109.409 109.956 110.423C109.956 112.281 110.496 114.072 111.544 115.592C111.713 115.829 111.983 115.964 112.287 115.964C112.456 115.964 112.625 115.93 112.794 115.795C113.199 115.525 113.559 115.742 113.03 114.545C112.186 113.329 111.746 111.876 111.746 110.355C111.746 109.409 111.915 108.497 112.287 107.618C114.956 107.584 117.423 106.436 119.146 104.442C120.498 105.996 122.322 107.044 124.316 107.449C124.012 108.395 123.843 109.342 123.843 110.355C123.843 111.943 124.248 113.464 125.025 114.815C123.64 116.64 121.478 117.721 119.146 117.721C119.011 117.721 118.842 117.721 118.707 117.721C117.631 117.66 116.554 117.346 115.605 116.832C115.419 116.731 115.25 116.6 115.095 116.456C112.764 114.285 112.306 114.025 111.966 113C111.73 113.405 111.24 115.506 111.679 115.742C114.466 119 116.342 119.14 117.389 119.343C117.085 120.289 116.916 121.235 116.916 122.249C116.916 127.283 121.038 131.406 126.073 131.406C131.108 131.406 135.23 127.283 135.23 122.249C135.23 121.235 135.061 120.289 134.757 119.343C138.98 118.532 142.157 114.815 142.157 110.355C142.157 109.342 141.988 108.395 141.683 107.449C142.63 107.28 143.542 106.942 144.353 106.469C147.529 107.28 150.773 107.179 153.814 106.165C154.084 106.064 154.287 105.861 154.354 105.625C155.605 101.975 155.503 98.056 154.05 94.2716C153.51 92.8862 152.901 91.7374 152.395 90.9265C157.091 90.2845 160.504 87.0745 160.673 86.9056C160.977 86.7704 161.045 86.2636 160.774 85.9257ZM139.116 104.375C139.791 104.78 140.704 105.287 141.785 105.76C141.177 105.929 140.535 105.996 139.893 105.996C139.521 105.996 139.149 105.963 138.778 105.929C138.913 105.422 139.014 104.915 139.116 104.375ZM130.364 82.3441C129.621 82.4116 128.404 82.6144 127.053 83.1212C127.965 81.8372 129.249 80.8911 130.736 80.3843C130.533 81.1614 130.432 81.871 130.364 82.3441ZM121.41 74.4036L123.268 72.9845C124.248 73.4575 126.816 75.147 127.425 80.1478C127.12 80.3843 126.816 80.6546 126.512 80.9587C125.465 77.3433 122.998 75.3497 121.41 74.4036ZM111.611 87.3786C111.611 83.3239 114.923 80.0126 118.977 80.0126C121.376 80.0126 123.606 81.1614 124.992 83.0874C124.755 83.5267 124.552 83.9659 124.417 84.439C123.674 84.9458 122.931 85.554 122.289 86.2974C120.869 87.8855 119.957 89.8452 119.552 92.1767C119.417 92.3118 119.248 92.4808 119.112 92.6497C117.389 90.6562 114.889 89.4735 112.186 89.4735C112.084 89.4735 112.017 89.4735 111.915 89.4735C111.713 88.7978 111.611 88.0882 111.611 87.3786ZM112.186 105.996C112.05 105.996 111.882 105.996 111.746 105.996C107.861 105.76 104.82 102.516 104.82 98.6304C104.82 94.5757 108.131 91.2644 112.186 91.2644C114.517 91.2644 116.646 92.3456 118.065 94.1702C117.288 95.5218 116.882 97.0761 116.882 98.6304C116.882 100.05 117.186 101.401 117.828 102.651C117.896 102.786 117.964 102.955 118.065 103.091C116.646 104.915 114.517 105.996 112.186 105.996ZM119.856 102.651C119.687 102.381 119.552 102.144 119.417 101.874C118.91 100.86 118.673 99.7792 118.673 98.6304C118.673 97.5829 118.91 96.5692 119.315 95.6232C119.315 96.1638 119.383 96.7382 119.417 97.3464C119.45 97.6167 119.585 97.8532 119.822 97.9884C119.957 98.056 122.491 99.6778 126.377 97.9208C126.242 98.9007 126.174 100.151 126.377 101.57C126.546 102.786 126.918 104.273 127.695 105.827C127.154 105.963 126.614 105.996 126.039 105.996C125.904 105.996 125.769 105.996 125.6 105.996C123.268 105.861 121.14 104.611 119.856 102.651ZM126.039 129.784C121.984 129.784 118.673 126.473 118.673 122.418C118.673 121.472 118.842 120.559 119.214 119.681C121.883 119.647 124.35 118.498 126.073 116.505C127.796 118.498 130.263 119.647 132.932 119.681C133.27 120.559 133.473 121.472 133.473 122.418C133.405 126.473 130.128 129.784 126.039 129.784ZM132.966 117.89C130.466 117.89 128.168 116.64 126.783 114.545V114.511C126.005 113.329 125.6 111.909 125.6 110.49C125.6 109.544 125.769 108.632 126.141 107.753C126.985 107.753 127.83 107.618 128.607 107.382C129.756 109.173 131.445 110.997 133.946 112.754C134.115 112.856 134.284 112.923 134.453 112.923C134.689 112.923 134.926 112.822 135.095 112.653C135.196 112.518 137.054 110.592 138.237 107.618C138.778 107.72 139.284 107.753 139.825 107.787C140.163 108.666 140.366 109.578 140.366 110.524C140.366 114.579 137.054 117.89 132.966 117.89Z" fill="#0C282F"></path></svg> 